<svg width="25" height="26" viewBox="0 0 25 26" fill="none" xmlns="http://www.w3.org/2000/svg">
<path d="M12.0439 3.50391H12.9561C15.4586 3.50391 17.2369 3.50607 18.585 3.68652C19.7399 3.84116 20.4625 4.11402 20.9922 4.54688L21.208 4.74219C21.7516 5.29002 22.0803 6.04613 22.2559 7.3623C22.4352 8.70723 22.4375 10.479 22.4375 12.9678V13.8975C22.4375 16.3952 22.4353 18.1713 22.2559 19.5186C22.0803 20.8371 21.7515 21.5929 21.208 22.1406C20.6596 22.6889 19.9061 23.0197 18.5879 23.1963C17.2411 23.3767 15.4633 23.3789 12.9561 23.3789H12.0439C9.54613 23.3789 7.77061 23.3767 6.42383 23.1963C5.10482 23.0196 4.34888 22.6887 3.80078 22.1406C3.25256 21.5924 2.92179 20.8362 2.74512 19.5195C2.56477 18.1751 2.5625 16.4038 2.5625 13.915V12.9854C2.5625 10.4876 2.56473 8.71153 2.74414 7.36426C2.91973 6.04574 3.24854 5.2899 3.79199 4.74219C4.34038 4.19389 5.09387 3.86313 6.41211 3.68652C7.7589 3.50609 9.53672 3.50391 12.0439 3.50391Z" stroke="#333333" stroke-width="2"/>
<path d="M13.128 18.1289C8.32341 18.1289 5.58294 14.903 5.46875 9.53516H7.87545C7.9545 13.475 9.72878 15.1439 11.1342 15.488V9.53516H13.4003V12.9331C14.7881 12.7868 16.2462 11.2384 16.7381 9.53516H19.0042C18.8189 10.4185 18.4494 11.2549 17.9189 11.992C17.3884 12.7292 16.7083 13.3512 15.9212 13.8191C16.7998 14.2467 17.5759 14.8519 18.1982 15.5948C18.8205 16.3377 19.2748 17.2014 19.5312 18.1289H17.0367C16.8065 17.3233 16.3387 16.6022 15.6918 16.0559C15.0449 15.5096 14.2478 15.1624 13.4003 15.0579V18.1289H13.128Z" fill="#333333"/>
</svg>
