<svg width="25" height="26" viewBox="0 0 25 26" fill="none" xmlns="http://www.w3.org/2000/svg">
<path fill-rule="evenodd" clip-rule="evenodd" d="M12.5 24.3789C18.5406 24.3789 23.4375 19.482 23.4375 13.4414C23.4375 7.40079 18.5406 2.50391 12.5 2.50391C6.45939 2.50391 1.5625 7.40079 1.5625 13.4414C1.5625 15.403 2.0789 17.244 2.98318 18.8359L1.5625 24.3789L7.27724 23.0537C8.8292 23.8988 10.6085 24.3789 12.5 24.3789ZM12.5 22.6962C17.6113 22.6962 21.7548 18.5527 21.7548 13.4414C21.7548 8.33012 17.6113 4.1866 12.5 4.1866C7.38871 4.1866 3.24519 8.33012 3.24519 13.4414C3.24519 15.4149 3.86289 17.2441 4.9155 18.7463L4.08654 21.8549L7.24995 21.064C8.74169 22.0934 10.5504 22.6962 12.5 22.6962Z" fill="#333333"/>
<path d="M9.76564 8.36336C9.50559 7.84103 9.10666 7.88728 8.70365 7.88728C7.98341 7.88728 6.86035 8.75 6.86035 10.3556C6.86035 11.6715 7.44019 13.1119 9.39408 15.2667C11.2797 17.3462 13.7573 18.4219 15.8142 18.3853C17.8711 18.3487 18.2943 16.5786 18.2943 15.9809C18.2943 15.7159 18.1299 15.5838 18.0166 15.5478C17.3157 15.2114 16.0229 14.5847 15.7288 14.4669C15.4346 14.3491 15.281 14.5084 15.1856 14.5951C14.9188 14.8493 14.39 15.5984 14.209 15.7669C14.0279 15.9354 13.758 15.8502 13.6457 15.7865C13.2324 15.6206 12.1117 15.1221 11.2183 14.2561C10.1135 13.1852 10.0487 12.8167 9.84055 12.4887C9.67403 12.2263 9.79622 12.0653 9.8572 11.995C10.0952 11.7203 10.4239 11.2963 10.5713 11.0855C10.7187 10.8748 10.6017 10.5549 10.5315 10.3556C10.2295 9.49861 9.97368 8.78122 9.76564 8.36336Z" fill="#333333"/>
</svg>
