<svg width="20" height="20" viewBox="0 0 20 20" fill="none" xmlns="http://www.w3.org/2000/svg">
<rect x="0.5" y="0.5" width="19" height="19" rx="9.5" stroke="#333333"/>
<path d="M9.29 12.56C9.29 12.168 9.35067 11.832 9.472 11.552C9.60267 11.272 9.76133 11.0247 9.948 10.81C10.144 10.5953 10.3493 10.3947 10.564 10.208C10.788 10.0213 10.998 9.83467 11.194 9.648C11.39 9.452 11.5487 9.242 11.67 9.018C11.7913 8.78467 11.852 8.514 11.852 8.206C11.852 7.702 11.656 7.29133 11.264 6.974C10.872 6.65667 10.3167 6.498 9.598 6.498C9.00067 6.498 8.48267 6.596 8.044 6.792C7.60533 6.97867 7.232 7.25867 6.924 7.632L6.182 7.072C6.55533 6.60533 7.036 6.246 7.624 5.994C8.212 5.742 8.89333 5.616 9.668 5.616C10.3213 5.616 10.886 5.714 11.362 5.91C11.8473 6.106 12.2207 6.386 12.482 6.75C12.7527 7.114 12.888 7.548 12.888 8.052C12.888 8.45333 12.8227 8.79867 12.692 9.088C12.5707 9.368 12.412 9.62 12.216 9.844C12.0293 10.0587 11.824 10.264 11.6 10.46C11.3853 10.6467 11.18 10.838 10.984 11.034C10.788 11.23 10.6293 11.4493 10.508 11.692C10.3867 11.9347 10.326 12.224 10.326 12.56H9.29ZM9.808 15.57C9.612 15.57 9.43933 15.5 9.29 15.36C9.15 15.2107 9.08 15.038 9.08 14.842C9.08 14.6367 9.15 14.4687 9.29 14.338C9.43933 14.198 9.612 14.128 9.808 14.128C10.0227 14.128 10.2 14.198 10.34 14.338C10.48 14.4687 10.55 14.6367 10.55 14.842C10.55 15.038 10.48 15.2107 10.34 15.36C10.2 15.5 10.0227 15.57 9.808 15.57Z" fill="#333333"/>
</svg>
