<svg width="32" height="15" viewBox="0 0 32 15" fill="none" xmlns="http://www.w3.org/2000/svg">
<path d="M2.33331 6L1.84378 6.87198L0.290556 6L1.84378 5.12802L2.33331 6ZM31.8333 14C31.8333 14.5523 31.3856 15 30.8333 15C30.281 15 29.8333 14.5523 29.8333 14L31.8333 14ZM11.2396 11L10.75 11.872L1.84378 6.87198L2.33331 6L2.82285 5.12802L11.7291 10.128L11.2396 11ZM2.33331 6L1.84378 5.12802L10.75 0.128018L11.2396 1L11.7291 1.87198L2.82285 6.87198L2.33331 6ZM2.33331 6L2.33331 5L24.8333 5L24.8333 6L24.8333 7L2.33331 7L2.33331 6ZM30.8333 12L31.8333 12L31.8333 14L30.8333 14L29.8333 14L29.8333 12L30.8333 12ZM24.8333 6L24.8333 5C28.6993 5 31.8333 8.13401 31.8333 12L30.8333 12L29.8333 12C29.8333 9.23858 27.5947 7 24.8333 7L24.8333 6Z" fill="#333333"/>
</svg>
