<svg width="32" height="15" viewBox="0 0 32 15" fill="none" xmlns="http://www.w3.org/2000/svg">
<path d="M29.6667 9L30.1562 8.12802L31.7094 9L30.1562 9.87198L29.6667 9ZM0.166685 1C0.166685 0.447717 0.614401 1.6041e-06 1.16668 1.57361e-06C1.71897 1.54312e-06 2.16669 0.447717 2.16669 1L0.166685 1ZM20.7604 4L21.25 3.12802L30.1562 8.12802L29.6667 9L29.1772 9.87198L20.2709 4.87198L20.7604 4ZM29.6667 9L30.1562 9.87198L21.25 14.872L20.7604 14L20.2709 13.128L29.1772 8.12802L29.6667 9ZM29.6667 9L29.6667 10L7.16669 10L7.16669 9L7.16669 8L29.6667 8L29.6667 9ZM1.16669 3L0.166685 3L0.166685 1L1.16669 1L2.16669 1L2.16669 3L1.16669 3ZM7.16669 9L7.16669 10C3.30069 10 0.166686 6.86599 0.166685 3L1.16669 3L2.16669 3C2.16669 5.76142 4.40526 8 7.16669 8L7.16669 9Z" fill="#777777"/>
</svg>
