<svg width="38" height="48" viewBox="0 0 38 48" fill="none" xmlns="http://www.w3.org/2000/svg">
<path d="M6.33331 10L5.84378 10.872L4.29056 10L5.84378 9.12802L6.33331 10ZM35.8333 18C35.8333 18.5523 35.3856 19 34.8333 19C34.281 19 33.8333 18.5523 33.8333 18L35.8333 18ZM15.2396 15L14.75 15.872L5.84378 10.872L6.33331 10L6.82285 9.12802L15.7291 14.128L15.2396 15ZM6.33331 10L5.84378 9.12802L14.75 4.12802L15.2396 5L15.7291 5.87198L6.82285 10.872L6.33331 10ZM6.33331 10L6.33331 9L28.8333 9L28.8333 10L28.8333 11L6.33331 11L6.33331 10ZM34.8333 16L35.8333 16L35.8333 18L34.8333 18L33.8333 18L33.8333 16L34.8333 16ZM28.8333 10L28.8333 9C32.6993 9 35.8333 12.134 35.8333 16L34.8333 16L33.8333 16C33.8333 13.2386 31.5947 11 28.8333 11L28.8333 10Z" fill="#333333"/>
<path d="M31.6667 38L32.1562 37.128L33.7094 38L32.1562 38.872L31.6667 38ZM2.16669 30C2.16669 29.4477 2.6144 29 3.16668 29C3.71897 29 4.16669 29.4477 4.16669 30L2.16669 30ZM22.7604 33L23.25 32.128L32.1562 37.128L31.6667 38L31.1772 38.872L22.2709 33.872L22.7604 33ZM31.6667 38L32.1562 38.872L23.25 43.872L22.7604 43L22.2709 42.128L31.1772 37.128L31.6667 38ZM31.6667 38L31.6667 39L9.16669 39L9.16669 38L9.16669 37L31.6667 37L31.6667 38ZM3.16669 32L2.16669 32L2.16669 30L3.16669 30L4.16669 30L4.16669 32L3.16669 32ZM9.16669 38L9.16669 39C5.30069 39 2.16669 35.866 2.16669 32L3.16669 32L4.16669 32C4.16669 34.7614 6.40526 37 9.16669 37L9.16669 38Z" fill="#777777"/>
</svg>
