<svg width="18" height="18" viewBox="0 0 18 18" fill="none" xmlns="http://www.w3.org/2000/svg">
<path d="M9.18 17.476C8.04 17.476 6.972 17.26 5.976 16.828C4.98 16.408 4.098 15.82 3.33 15.064C2.574 14.296 1.98 13.414 1.548 12.418C1.128 11.422 0.918 10.354 0.918 9.214C0.918 8.074 1.128 7.006 1.548 6.01C1.98 5.014 2.574 4.138 3.33 3.382C4.098 2.614 4.98 2.02 5.976 1.6C6.972 1.168 8.04 0.952 9.18 0.952C10.32 0.952 11.388 1.168 12.384 1.6C13.38 2.02 14.256 2.614 15.012 3.382C15.78 4.138 16.374 5.014 16.794 6.01C17.226 7.006 17.442 8.074 17.442 9.214C17.442 10.354 17.226 11.422 16.794 12.418C16.374 13.414 15.78 14.296 15.012 15.064C14.256 15.82 13.38 16.408 12.384 16.828C11.388 17.26 10.32 17.476 9.18 17.476ZM9.18 15.928C10.104 15.928 10.968 15.754 11.772 15.406C12.588 15.058 13.302 14.578 13.914 13.966C14.538 13.342 15.024 12.628 15.372 11.824C15.72 11.008 15.894 10.138 15.894 9.214C15.894 8.29 15.72 7.426 15.372 6.622C15.024 5.806 14.538 5.092 13.914 4.48C13.302 3.856 12.588 3.37 11.772 3.022C10.968 2.674 10.104 2.5 9.18 2.5C8.256 2.5 7.386 2.674 6.57 3.022C5.766 3.37 5.052 3.856 4.428 4.48C3.816 5.092 3.336 5.806 2.988 6.622C2.64 7.426 2.466 8.29 2.466 9.214C2.466 10.138 2.64 11.008 2.988 11.824C3.336 12.628 3.816 13.342 4.428 13.966C5.052 14.578 5.766 15.058 6.57 15.406C7.386 15.754 8.256 15.928 9.18 15.928ZM9.18 6.28C8.916 6.28 8.682 6.22 8.478 6.1C8.286 5.968 8.19 5.734 8.19 5.398C8.19 5.038 8.292 4.804 8.496 4.696C8.712 4.576 8.94 4.516 9.18 4.516C9.828 4.516 10.152 4.81 10.152 5.398C10.152 5.734 10.05 5.968 9.846 6.1C9.642 6.22 9.42 6.28 9.18 6.28ZM8.262 13.732V7.108H10.08V13.732H8.262Z" fill="#333333"/>
</svg>
