<svg width="890" height="273" viewBox="0 0 890 273" fill="none" xmlns="http://www.w3.org/2000/svg">
<path d="M555.658 154.6C556.237 153.598 556.689 152.865 557.071 152.103C566.35 133.488 575.628 114.872 584.907 96.2558C585.712 94.6481 586.305 93.0121 588.763 93.0544C596.672 93.1955 604.58 93.1109 612.419 93.1109C613.45 96.6648 613.902 200.688 612.955 209.799C605.781 209.799 598.55 209.799 590.655 209.799C590.655 185.006 590.655 160.199 590.655 135.406C590.288 135.335 589.907 135.25 589.539 135.18C587.223 139.707 584.921 144.22 582.605 148.747C575.967 161.722 569.287 174.668 562.734 187.685C561.717 189.702 560.559 190.562 558.201 190.576C550.278 190.604 550.249 190.717 546.606 183.638C538.174 167.306 529.757 150.975 521.325 134.644C521.269 134.531 521.071 134.489 520.266 134.023C520.224 142.556 520.69 150.707 520.69 158.845C520.69 167.363 520.803 175.895 520.831 184.413C520.859 192.762 520.831 201.111 520.831 209.799C513.275 209.799 506.044 209.799 498.771 209.799C497.754 206.781 497.316 102.828 498.347 93.5199C502.598 92.6032 506.991 93.1955 511.326 93.0967C515.577 92.998 519.828 93.0686 524.503 93.0686C534.827 113.419 545.094 133.713 555.658 154.6Z" fill="#369996"/>
<path d="M305.698 170.834C305.698 184.122 305.698 196.807 305.698 209.8C297.634 209.8 289.979 209.8 282 209.8C282 170.947 282 132.248 282 93.2537C283.539 93.1553 284.867 92.9868 286.195 93.0008C300.656 93.1694 315.133 93.057 329.566 93.647C341.189 94.1246 351.598 97.9172 359.055 107.553C362.967 112.61 365.086 118.383 365.989 124.606C367.373 134.102 366.583 143.415 362.12 152.04C357.12 161.718 348.703 167.294 338.181 169.12C331.035 170.357 323.677 170.371 316.404 170.792C313.085 170.989 309.723 170.834 305.698 170.834ZM305.882 150.171C311.842 150.171 317.307 150.256 322.773 150.129C325.174 150.073 327.617 149.764 329.962 149.23C338.492 147.292 342.927 141.322 342.912 132.009C342.912 122.906 338.181 116.684 329.905 114.675C323.154 113.032 316.291 113.86 309.469 113.678C308.311 113.65 307.153 113.888 305.868 114.015C305.882 126.067 305.882 137.824 305.882 150.171Z" fill="#369996"/>
<path d="M821.608 93.1967C821.608 119.252 821.608 144.72 821.608 170.776C825.873 170.776 829.814 170.776 834.036 170.776C834.036 177.057 834.036 182.766 834.036 188.99C830.322 188.99 826.509 188.99 822.131 188.99C821.749 196.187 822.074 202.94 821.876 209.923C814.914 209.923 808.234 209.923 800.918 209.923C800.791 203.527 800.664 197.117 800.537 190.363C781.146 190.363 762.15 190.363 742.604 190.363C742.548 187.058 742.731 184.068 742.378 181.135C741.616 174.739 743.819 169.602 747.406 164.365C762.871 141.83 778.01 119.052 793.136 96.2587C794.69 93.9264 796.3 93.068 798.983 93.1252C806.299 93.2969 813.629 93.1967 821.608 93.1967ZM768.209 170.661C779.409 170.661 789.775 170.661 800.339 170.661C800.339 154.622 800.339 138.94 800.339 123.244C800.127 123.129 799.901 123.029 799.689 122.915C789.309 138.654 778.943 154.378 768.209 170.661Z" fill="#369996"/>
<path d="M136.491 189.368C129.666 189.086 122.919 188.818 115.784 188.522C117.413 193.912 120.019 198.357 122.935 202.661C129.852 212.863 139.003 221.273 149.008 228.936C164.813 241.043 182.06 251.231 200.378 259.839C209.498 264.129 218.975 267.783 228.281 271.734C228.591 271.861 228.824 272.144 229.506 272.68C228.606 272.793 228.095 272.934 227.583 272.92C213.329 272.496 199.059 272.398 184.852 271.551C161.524 270.168 138.616 266.739 116.932 258.244C98.9557 251.203 82.8405 241.692 69.362 228.71C60.8314 220.483 53.3088 211.551 47.9268 201.236C40.6834 187.351 38.6671 172.844 41.1643 157.703C43.8631 141.349 52.1611 127.407 63.4371 114.806C76.078 100.681 91.3867 89.279 108.107 79.3731C126.766 68.3383 146.479 59.1097 167.062 51.518C180.695 46.4945 194.592 41.9789 208.614 37.915C231.026 31.4098 253.935 26.5556 276.968 22.153C299.892 17.7645 322.987 14.4201 346.175 11.4427C365.33 8.97329 384.563 7.44932 403.873 6.54621C416.499 5.95355 429.108 5.03632 441.718 4.33077C452.358 3.73811 462.998 3.21601 473.639 2.72212C489.226 2.00246 504.83 1.33924 520.433 0.647801C525.257 0.436136 530.081 0.196245 534.92 0.0269132C536.89 -0.0436418 538.859 0.012804 540.845 0.337357C531.523 1.18402 522.201 2.10124 512.864 2.86324C497.571 4.11912 482.262 5.36088 466.954 6.44743C457.198 7.13886 447.395 7.33641 437.639 8.07018C427.65 8.83218 417.677 9.96106 407.704 10.9629C407.161 11.0194 406.649 11.2452 406.122 11.4004C406.138 11.6403 406.153 11.8943 406.169 12.1342C408.325 12.2329 410.527 12.6704 412.621 12.3882C435.111 9.36841 457.771 8.6064 480.463 8.42296C484.294 8.39474 488.141 8.16897 491.972 8.05608C492.204 8.04197 492.437 8.18307 493.383 8.46529C489.133 8.94506 485.55 9.32607 481.968 9.77762C472.274 10.9771 462.564 12.0918 452.901 13.4606C442.013 15.0128 431.156 16.6779 420.33 18.5123C392.427 23.2254 364.88 29.2226 337.799 37.0119C323.499 41.1182 309.322 45.4785 295.518 50.7842C278.271 57.4164 261.395 64.7259 245.714 74.1521C229.723 83.7616 215.81 95.4173 204.643 109.571C194.003 123.075 189.303 138.329 191.103 154.923C192.592 168.71 198.687 180.972 207.512 192.162C215.035 201.701 224.326 209.618 234.376 216.857C253.144 230.389 273.85 240.986 295.627 249.848C307.942 254.858 320.598 259.147 333.084 263.762C333.534 263.931 333.953 264.129 335.038 264.594C331.362 265.328 328.338 266.048 325.251 266.527C306.422 269.448 287.468 271.269 268.344 271.537C266.297 271.565 264.141 271.198 262.217 270.549C240.193 263.183 219.006 254.166 198.796 243.343C182.401 234.566 166.968 224.575 153.924 211.805C148.511 206.499 143.656 200.812 139.763 194.462C138.755 192.882 137.732 191.33 136.491 189.368ZM138.228 124.288C136.212 124.077 134.909 123.879 133.59 123.823C130.752 123.71 127.882 123.795 125.06 123.541C123.214 123.385 122.097 123.907 121.058 125.276C116.482 131.372 112.853 137.877 111.162 145.13C110.123 149.604 109.472 154.161 110.263 158.719C117.056 159.679 125.308 159.82 128.286 158.987C127.836 146.852 131.527 135.535 138.228 124.288ZM188.807 77.7645C188.729 77.5528 188.667 77.3411 188.59 77.1295C185.41 76.8613 182.215 76.4945 179.02 76.3816C177.872 76.3392 176.538 76.6638 175.561 77.2282C166.41 82.4493 157.569 88.0514 149.612 94.7259C148.573 95.6008 147.627 96.5603 146.154 97.9291C150.776 98.3242 154.56 98.5923 158.329 98.9733C160.221 99.1709 161.524 98.55 162.936 97.3788C168.147 93.0467 173.483 88.8275 178.88 84.693C182.076 82.2659 185.488 80.0646 188.807 77.7645ZM205.108 60.5772C205.201 60.8171 205.294 61.0711 205.372 61.311C207.823 61.5509 210.289 61.7203 212.724 62.073C215.299 62.4399 217.455 61.7485 219.75 60.676C227.552 57.0636 235.493 53.6911 243.372 50.2057C243.931 49.9517 244.411 49.5707 245.466 48.9216C242.814 48.6958 240.844 48.6676 238.936 48.343C236.253 47.8915 233.88 48.3994 231.445 49.4295C225.396 51.9836 219.269 54.3402 213.205 56.8661C210.459 58.0232 207.807 59.3355 205.108 60.5772ZM267.367 38.2536C272.299 38.804 276.44 39.5377 280.907 38.042C287.608 35.7842 294.541 34.105 301.396 32.2423C304.995 31.2546 308.64 30.3938 312.269 29.4625C312.254 29.2226 312.254 28.9968 312.238 28.7569C309.322 28.5876 306.22 27.7409 303.537 28.3618C291.966 31.0852 280.504 34.232 269.011 37.2518C268.592 37.3646 268.251 37.7033 267.367 38.2536ZM382.996 15.4361C382.981 15.1539 382.981 14.8717 382.965 14.5895C380.282 14.4625 377.506 13.8557 374.946 14.279C362.554 16.3392 350.223 18.6534 337.877 20.9253C337.272 21.0382 336.729 21.4615 335.922 21.8425C340.017 23.042 343.693 23.0137 347.555 22.1671C355.465 20.4173 363.469 19.0062 371.441 17.4963C375.303 16.7626 379.15 16.1135 382.996 15.4361Z" fill="#333333"/>
<path d="M81.4849 251.047C73.4971 248.084 66.3468 244.853 59.5688 240.93C45.2528 232.647 32.2086 222.995 21.3514 211.071C12.7277 201.602 6.10478 191.118 2.61496 179.095C-1.41772 165.224 -0.843837 151.593 4.73988 138.202C9.19133 127.562 15.7987 118.065 23.8486 109.373C38.8005 93.2158 56.9011 80.5582 76.6457 69.6928C94.5136 59.8715 113.359 51.8988 132.715 44.8574C160.029 34.895 188.258 27.7972 216.952 21.9976C239.085 17.5244 261.405 13.9684 283.832 11.0474C298.288 9.15653 312.837 7.91476 327.37 6.57422C344.509 4.99378 361.648 3.55447 378.802 2.15749C386.573 1.52249 394.359 1.12736 402.145 0.6617C403.836 0.562923 405.526 0.647603 407.217 1.0286C401.09 1.64948 394.948 2.22804 388.822 2.90537C372.365 4.75391 355.878 6.46134 339.452 8.5921C321.678 10.8922 303.918 13.3052 286.268 16.2544C269.346 19.0907 252.517 22.4068 235.781 26.0333C216.999 30.0973 198.526 35.2478 180.363 41.2873C161.27 47.6514 142.658 55.0032 124.712 63.7238C110.039 70.8499 95.8785 78.7097 82.7102 87.9947C68.7199 97.8583 56.1255 108.978 45.9508 122.242C33.4805 138.498 27.1057 156.433 28.3931 176.358C29.1376 187.999 32.5809 199.02 38.8626 209.222C48.8047 225.38 62.6399 238.263 79.1118 248.931C79.7167 249.326 80.3216 249.707 80.9265 250.102C81.0351 250.158 81.0661 250.285 81.4849 251.047Z" fill="#333333"/>
<path d="M348.455 259C343.931 257.714 339.39 256.485 334.897 255.129C306.848 246.667 280.429 235.224 256.035 220.234C243.268 212.38 231.798 203.197 222.449 192.05C214.729 182.853 208.448 172.978 205.711 161.592C202.389 147.789 203.829 134.439 210.694 121.639C217.592 108.783 227.828 98.2442 239.74 88.9767C253.472 78.2963 269.181 70.3144 285.397 63.1094C308.984 52.641 333.663 44.6873 358.881 38.0191C382.626 31.7466 406.704 26.7313 430.956 22.2953C455.478 17.8169 480.22 14.6383 505.01 11.6856C533.597 8.28093 562.326 6.5574 591.15 6.00643C592.922 5.97818 594.694 6.0488 596.45 6.10531C596.766 6.11944 597.067 6.28898 598 6.59978C590.47 7.15075 583.556 7.54631 576.659 8.18204C561.329 9.59478 546 11.064 530.686 12.6322C519.643 13.7624 508.633 14.9915 497.622 16.3759C488.62 17.5061 479.635 18.8341 470.681 20.2468C459.369 22.041 448.058 23.8211 436.826 25.9402C402.955 32.354 369.527 40.1948 336.938 50.7762C313.366 58.4332 290.554 67.5454 269.513 79.8362C252.554 89.7395 237.335 101.381 226.578 117.034C220.06 126.527 215.915 136.727 215.709 147.987C215.551 157.156 217.608 165.929 221.848 174.278C228.745 187.911 239.202 199.114 251.668 208.918C263.565 218.285 276.68 226.111 290.332 233.26C306.928 241.948 324.061 249.634 342.001 255.878C344.2 256.641 346.43 257.389 348.629 258.138C348.613 258.435 348.534 258.717 348.455 259Z" fill="#333333"/>
<path d="M725.541 132.551C725.541 173.386 665.205 159.822 660.333 186.936H727V209.8H636V194.61C636 135.975 702.823 161.291 702.823 131.396C702.823 121.112 694.07 114.894 681.578 114.894C667.471 114.894 658.704 123.551 658.704 138.742H636C636 111.143 654.653 93 681.734 93C708.191 93.0143 725.541 108.204 725.541 132.551Z" fill="#369996"/>
<path d="M885.735 59.8798C880.556 52.1117 871.722 47 861.681 47C852.847 47 844.945 50.9581 839.649 57.2023C833.463 64.4941 832.308 74.8022 836.429 83.4276L861.617 136.111L887.24 82.7714C890.777 75.4055 890.269 66.6849 885.735 59.8798ZM861.776 86.592C853.779 86.592 847.286 80.115 847.286 72.1141C847.286 64.1131 853.768 57.6362 861.776 57.6362C869.773 57.6362 876.266 64.1131 876.266 72.1141C876.266 80.115 869.784 86.592 861.776 86.592Z" fill="#333333"/>
<path d="M477.42 210H452.656V113.568H423.956C423.3 118.597 422.589 124.064 421.824 129.968C421.168 135.872 420.403 141.885 419.528 148.008C418.763 154.021 417.943 159.761 417.068 165.228C416.193 170.585 415.319 175.341 414.444 179.496C413.023 186.275 411.109 192.069 408.704 196.88C406.408 201.691 403.183 205.353 399.028 207.868C394.983 210.383 389.68 211.64 383.12 211.64C380.933 211.64 378.856 211.476 376.888 211.148C374.92 210.82 373.061 210.383 371.312 209.836V189.5C372.733 189.937 374.1 190.32 375.412 190.648C376.833 190.976 378.364 191.14 380.004 191.14C382.191 191.14 383.995 190.429 385.416 189.008C386.837 187.587 388.095 185.181 389.188 181.792C390.281 178.293 391.375 173.483 392.468 167.36C393.015 164.736 393.671 161.019 394.436 156.208C395.201 151.288 396.076 145.548 397.06 138.988C398.153 132.319 399.247 125.103 400.34 117.34C401.433 109.468 402.472 101.323 403.456 92.904H477.42V210Z" fill="#369996"/>
</svg>
