<svg width="155" height="65" viewBox="0 0 155 65" fill="none" xmlns="http://www.w3.org/2000/svg">
<g clip-path="url(#clip0_254_6130)">
<path d="M61.7098 42.0335C63.1715 35.5087 64.5043 29.2609 65.955 22.9152C66.0098 22.7278 66.2764 22.471 66.4471 22.4701C69.4251 22.4433 72.4031 22.4507 75.4112 22.4507C75.4112 25.2971 75.4112 28.076 75.4112 31.0914C76.5816 28.2653 77.5192 25.8226 78.6613 23.0732C78.7663 22.8247 79.0566 22.4812 79.2648 22.4784C82.2729 22.4396 85.2819 22.4516 88.3878 22.4516C86.9691 28.8084 85.6179 35.0192 84.1901 41.3473C84.1316 41.6059 83.8742 42.0151 83.7007 42.0197C81.7416 42.0677 79.7806 42.0502 77.6598 42.0502C78.528 38.0863 79.3643 34.2647 80.2014 30.4431C80.1503 30.4237 80.0983 30.4043 80.0471 30.3849C78.5216 34.0338 76.9952 37.6827 75.5281 41.3557C75.3254 41.8645 75.0598 42.0825 74.5102 42.0603C73.6137 42.0243 72.7144 42.0566 71.817 42.0566C70.6576 42.0557 70.6585 42.0548 70.6767 40.9151C70.5809 37.4805 71.0857 33.9128 70.6676 30.5474C69.8496 34.1945 69.0727 37.8527 68.2045 41.4877C68.1543 41.6918 67.9315 42.0077 67.7845 42.0105C65.7998 42.0446 63.8133 42.0335 61.7098 42.0335Z" fill="#369996"/>
<path d="M38.3934 31.7406C39.0562 31.9355 39.7336 32.0925 40.379 32.3345C41.6772 32.8202 42.1446 33.5083 41.9456 34.8751C41.6297 37.0408 41.2244 39.1936 40.8163 41.3446C40.778 41.5468 40.4493 41.8387 40.253 41.8414C37.4768 41.8738 34.6996 41.8636 31.7691 41.8636C31.9462 40.8523 32.1105 39.9223 32.2712 38.9923C32.5341 37.4694 32.8326 35.9501 33.028 34.418C33.0727 34.0652 32.8427 33.4122 32.6026 33.3374C31.9672 33.137 31.2569 33.149 30.5768 33.1527C30.4873 33.1527 30.364 33.5868 30.3166 33.8315C29.8482 36.2401 29.3735 38.6469 28.9444 41.0629C28.8376 41.666 28.6094 41.8922 27.9849 41.8858C25.321 41.8553 22.6561 41.858 19.9921 41.8848C19.3312 41.8913 19.1248 41.7066 19.2554 41.0213C20.403 34.998 21.5295 28.97 22.6543 22.9429C22.7428 22.4673 22.9409 22.2595 23.4622 22.2697C28.498 22.3676 33.5356 22.4248 38.5714 22.5393C39.3109 22.556 40.0695 22.7435 40.7789 22.9771C43.1909 23.7732 43.9641 25.4698 43.2876 28.1933C42.854 29.9379 41.8497 31.0166 40.0686 31.313C39.5017 31.4072 38.9366 31.5116 38.3714 31.6104C38.3797 31.6529 38.3861 31.6963 38.3934 31.7406ZM31.0278 29.9813C31.7599 29.9351 32.2767 30.0025 32.7167 29.8483C33.1942 29.6811 33.804 29.4031 33.9912 29.0005C34.3116 28.3106 34.423 27.4895 34.465 26.7156C34.4805 26.4293 34.0925 25.9214 33.8141 25.8595C33.1978 25.7237 32.5332 25.805 31.8887 25.8068C31.864 25.8068 31.8275 25.902 31.8165 25.9574C31.5637 27.2356 31.3144 28.5156 31.0278 29.9813Z" fill="#369996"/>
<path d="M51.5086 37.0953C54.5588 37.0953 57.5222 37.0953 60.5906 37.0953C60.2409 38.6164 59.9488 40.0036 59.5772 41.3695C59.5288 41.5477 59.076 41.7066 58.8058 41.7149C57.1853 41.762 55.563 41.7583 53.9407 41.7796C50.8705 41.8193 47.8012 41.8636 44.731 41.9052C44.4754 41.9089 44.2188 41.9052 43.8491 41.9052C45.3801 35.3849 46.8928 28.9386 48.4083 22.4858C50.6194 22.4858 52.7576 22.4858 55.0737 22.4858C53.8869 27.3519 52.7146 32.1553 51.5086 37.0953Z" fill="#369996"/>
<path d="M118.319 29.5823C118.885 28.2653 119.453 26.9493 120.02 25.6323C120.138 25.6683 120.099 25.6563 120.217 25.6933C119.987 26.9465 119.804 28.2108 119.488 29.441C119.44 29.6285 119.04 29.7245 118.706 29.8372C118.573 29.8815 118.427 29.8409 118.34 29.7301L118.339 29.7291C118.305 29.6876 118.298 29.6313 118.319 29.5823Z" fill="#333333"/>
<path d="M133.341 31.1459C130.396 26.7729 127.495 22.3676 124.556 17.9909C123.49 16.4042 121.964 15.6423 120.064 15.6091C117.023 15.5555 113.981 15.4946 110.94 15.4161C109.647 15.3828 109.117 14.8037 109.112 13.5015C109.107 12.4478 109.202 11.3811 109.059 10.3467C108.988 9.82676 108.599 9.17843 108.161 8.91338C106.734 8.05079 105.464 9.0085 105.233 10.9322C104.763 14.8435 104.246 18.7491 103.738 22.6557C103.14 27.2577 102.533 31.8588 101.926 36.459C101.75 37.7898 101.601 39.1262 101.352 40.4432C101.348 40.4626 101.343 40.4829 101.337 40.5023C101.173 41.0601 100.421 41.1516 100.098 40.6704C100.036 40.578 99.9775 40.4829 99.9255 40.385C99.8251 40.1975 99.8516 39.9288 99.8589 39.697C99.9009 38.4308 99.522 37.7825 98.3196 37.3059C97.7491 37.0796 97.5847 36.7518 97.6797 36.1672C97.8486 35.131 97.9645 34.0864 98.1106 33.0465C98.7104 28.7696 99.3147 24.4936 99.9155 20.2166C100.414 16.6638 100.931 13.1127 101.396 9.55616C101.597 8.024 101.263 7.70815 99.6973 7.70815C88.4243 7.70815 77.1522 7.70723 65.8792 7.71185C65.5058 7.71185 65.1197 7.71554 64.7609 7.8042C63.5969 8.09142 63.0007 9.25971 63.407 10.3957C63.7749 11.4254 64.4605 11.8493 65.8117 11.8503C70.622 11.853 75.4322 11.8466 80.2425 11.8521C81.6402 11.8539 82.6116 12.7156 82.5924 13.9005C82.5733 15.0697 81.5791 15.9286 80.2124 15.9416C74.1277 16.0007 68.0438 16.0607 61.9591 16.1096C59.1773 16.1327 56.3956 16.117 53.6139 16.1484C52.2746 16.1632 51.3671 17.0775 51.3781 18.3188C51.39 19.7179 52.2646 20.647 53.6203 20.6987C53.8805 20.7089 54.1416 20.7033 54.4027 20.7024C65.8482 20.6498 77.2937 20.5962 88.7393 20.5445C90.2885 20.5371 90.6163 20.9352 90.2785 22.4359C88.8397 28.8296 87.3981 35.2224 85.9511 41.6133C85.5357 43.4503 85.2007 43.7144 83.352 43.7135C65.8199 43.6996 48.2878 43.6811 30.7566 43.6728C25.3675 43.6701 19.9784 43.695 14.5884 43.7125C13.7951 43.7153 13.3012 44.1808 13.2802 44.9104C13.2601 45.6021 13.7778 46.1276 14.5455 46.1849C14.7473 46.1996 14.9509 46.195 15.1536 46.1978C21.556 46.2892 27.9585 46.3807 34.3618 46.473C35.4491 46.4887 36.143 47.0235 36.1357 47.8343C36.1284 48.6156 35.5833 48.9814 34.4257 48.9851C29.3835 48.998 24.3414 49.0017 19.2992 49.0257C14.2571 49.0497 9.21488 49.0866 4.17363 49.1402C3.75915 49.1448 3.28351 49.2243 2.94755 49.4431C2.36875 49.8199 2.15147 50.447 2.34501 51.1369C2.58237 51.9829 3.21595 52.1824 4.02573 52.1814C16.428 52.1704 28.8303 52.1648 41.2326 52.1999C42.1875 52.2027 42.6842 51.9543 43.137 51.0547C43.6364 50.0619 44.4717 49.2381 45.1856 48.3617C45.36 48.1474 45.633 48.0144 46.0009 47.7374C45.9114 47.9756 45.9087 48.0089 45.8904 48.0283C45.6348 48.3072 45.3618 48.5722 45.1217 48.8641C42.9854 51.4518 41.963 54.3499 42.7663 57.731C43.4538 60.6245 46.1177 62.3173 48.9889 61.6275C52.8023 60.7104 54.85 58.0136 55.9492 54.4026C56.8055 51.5904 56.3089 47.8195 52.9657 46.0842C55.9711 46.6928 57.5213 48.7302 58.164 51.6532C58.6816 51.6532 59.1417 51.6541 59.6019 51.6532C74.5832 51.6245 89.5655 51.5858 104.547 51.5867C105.485 51.5867 106.111 51.414 106.486 50.4701C106.696 49.9428 107.098 49.4755 107.479 49.0405C108.269 48.1382 109.164 47.3615 110.318 46.945C107.632 48.8613 106.032 51.4371 105.669 54.7314C105.408 57.0984 105.924 59.2613 107.947 60.7224C109.88 62.1188 111.94 61.8667 113.943 60.8064C116.513 59.446 118.11 57.2397 118.846 54.4866C119.152 53.3405 119.256 52.1454 119.117 50.967C118.704 47.452 116.836 46.0039 113.103 45.8459C113.688 45.7979 114.28 45.6686 114.858 45.7148C118.736 46.0214 120.987 48.7357 121.456 51.6384C121.49 51.8462 121.854 52.1519 122.067 52.1537C125.08 52.1805 128.093 52.1685 131.107 52.15C131.966 52.1445 132.435 51.6467 132.541 50.8091C132.622 50.1718 132.666 49.529 132.714 48.8881C132.77 48.1252 132.427 47.7355 131.653 47.7438C130.957 47.7512 130.26 47.7752 129.567 47.7318C128.774 47.6819 128.238 47.089 128.256 46.3696C128.273 45.6991 128.813 45.1422 129.559 45.0923C130.165 45.0517 130.775 45.072 131.384 45.0711C132.961 45.0674 133.117 44.8771 133.235 43.2582C133.424 40.6648 133.692 38.0771 133.874 35.4838C133.978 34.0107 134.268 32.521 133.341 31.1459ZM52.5111 55.2485C51.4612 57.4891 49.2783 58.6666 47.635 57.8788C45.9918 57.091 45.5097 54.6362 46.5596 52.3957C47.6095 50.1552 49.7923 48.9777 51.4356 49.7655C53.0789 50.5532 53.5609 53.008 52.5111 55.2485ZM114.277 50.0185C115.92 50.8063 116.446 53.1669 115.451 55.291C114.456 57.4152 112.317 58.4985 110.674 57.7116C109.03 56.9248 108.504 54.5633 109.5 52.4391C110.495 50.314 112.634 49.2307 114.277 50.0185ZM114.8 34.0089H108.178C108.253 33.0909 108.404 32.3105 108.979 31.5642C110.537 29.5407 112.007 27.4489 113.491 25.3673C113.686 25.093 113.841 24.7291 113.853 24.4012C113.854 24.3809 113.853 24.3606 113.852 24.3403C113.816 23.8416 113.206 23.607 112.832 23.9339C112.776 23.9829 112.731 24.0373 112.706 24.0992C112.476 24.6515 112.413 25.274 112.268 25.9278H109.644C109.568 22.7213 112.263 20.7366 115.198 21.8199C116.485 22.2946 117.119 23.6504 116.572 25.1484C116.209 26.1449 115.672 27.1063 115.06 27.9735C114.129 29.2923 113.065 30.5151 111.932 31.9383H115.187C115.045 32.7011 114.923 33.3485 114.8 34.0089ZM123.352 29.9268C123.264 30.5576 123.177 31.1791 123.083 31.8478C122.799 31.9004 122.524 31.9503 122.186 32.0131C122.075 32.642 121.961 33.2913 121.838 33.9941C120.832 33.9941 119.837 33.9941 118.791 33.9941C118.89 33.3171 118.981 32.6873 119.087 31.966C117.949 31.966 116.837 31.966 115.521 31.966C115.727 31.0434 115.794 30.1983 116.106 29.4576C116.658 28.1444 117.358 26.8939 117.996 25.6175C118.633 24.343 119.271 23.0695 119.912 21.7867C121.256 21.7867 122.583 21.7867 123.963 21.7867C123.503 24.4465 123.048 27.0684 122.587 29.7338C122.849 29.7993 123.06 29.8529 123.352 29.9268Z" fill="#333333"/>
</g>
<defs>
<clipPath id="clip0_254_6130">
<rect width="155" height="65" fill="white"/>
</clipPath>
</defs>
</svg>
